HIERARCHY
ROOT Hips
{
	OFFSET 0.000000 0.000000 0.000000 
	CHANNELS 6 Xposition Yposition Zposition Zrotation Yrotation Xrotation
	JOINT LeftUpLeg
	{
		OFFSET 1.363060 -1.794630 0.839290 
		CHANNELS 3 Zrotation Yrotation Xrotation
		JOINT LeftLeg
		{
			OFFSET 2.448110 -6.726130 0.000000 
			CHANNELS 3 Zrotation Yrotation Xrotation
			JOINT LeftFoot
			{
				OFFSET 2.562200 -7.039590 0.000000 
				CHANNELS 3 Zrotation Yrotation Xrotation
				JOINT LeftToeBase
				{
					OFFSET 0.157640 -0.433110 2.322550 
					CHANNELS 3 Zrotation Yrotation Xrotation
					End Site
					{
						OFFSET 0.000000 0.000000 0.000000 
					}
				}
			}
		}
	}
	JOINT RightUpLeg
	{
		OFFSET -1.305520 -1.794630 0.839290 
		CHANNELS 3 Zrotation Yrotation Xrotation
		JOINT RightLeg
		{
			OFFSET -2.542530 -6.985550 0.000000 
			CHANNELS 3 Zrotation Yrotation Xrotation
			JOINT RightFoot
			{
				OFFSET -2.568260 -7.056230 0.000000 
				CHANNELS 3 Zrotation Yrotation Xrotation
				JOINT RightToeBase
				{
					OFFSET -0.164730 -0.452590 2.363150 
					CHANNELS 3 Zrotation Yrotation Xrotation
					End Site
					{
						OFFSET 0.000000 0.000000 0.000000 
					}
				}
			}
		}
	}
	JOINT Spine
	{
		OFFSET 0.028270 2.035590 -0.193380 
		CHANNELS 3 Zrotation Yrotation Xrotation
		JOINT Spine1
		{
			OFFSET 0.056720 2.048850 -0.042750 
			CHANNELS 3 Zrotation Yrotation Xrotation
			JOINT Neck1
			{
				OFFSET -0.054170 1.746240 0.172020 
				CHANNELS 3 Zrotation Yrotation Xrotation
				JOINT Head
				{
					OFFSET 0.104070 1.761360 -0.123970 
					CHANNELS 3 Zrotation Yrotation Xrotation
					End Site
					{
						OFFSET 0.000000 0.000000 0.000000 
					}
				}
			}
			JOINT LeftArm
			{
				OFFSET 3.362410 1.200890 -0.311210 
				CHANNELS 3 Zrotation Yrotation Xrotation
				JOINT LeftForeArm
				{
					OFFSET 4.983000 -0.000000 -0.000000 
					CHANNELS 3 Zrotation Yrotation Xrotation
					JOINT LeftHand
					{
						OFFSET 3.483560 -0.000000 -0.000000 
						CHANNELS 3 Zrotation Yrotation Xrotation
						JOINT LeftHandIndex1
						{
							OFFSET 0.715260 -0.000000 -0.000000 
							CHANNELS 3 Zrotation Yrotation Xrotation
							End Site
							{
								OFFSET 0.000000 0.000000 0.000000 
							}
						}
					}
				}
			}
			JOINT RightArm
			{
				OFFSET -3.136600 1.374050 -0.404650 
				CHANNELS 3 Zrotation Yrotation Xrotation
				JOINT RightForeArm
				{
					OFFSET -5.241900 -0.000000 -0.000000 
					CHANNELS 3 Zrotation Yrotation Xrotation
					JOINT RightHand
					{
						OFFSET -3.444170 -0.000000 -0.000000 
						CHANNELS 3 Zrotation Yrotation Xrotation
						JOINT RightHandIndex1
						{
							OFFSET -0.622530 -0.000000 -0.000000 
							CHANNELS 3 Zrotation Yrotation Xrotation
							End Site
							{
								OFFSET 0.000000 0.000000 0.000000 
							}
						}
					}
				}
			}
		}
	}
}
MOTION
Frames: 9
Frame Time: 0.041667
0.391215 17.648225 -10.402511 9.633611 6.292983 10.568211 -22.289423 1.630957 5.800370 -1.164866 3.712552 8.109079 -3.415310 16.528865 5.057836 1.342600 -7.336300 -20.715600 0.448475 -0.273069 -41.748465 -1.966893 -9.739969 26.234242 5.308426 -20.209596 -1.252769 -0.270500 3.345300 -9.241500 -0.651945 -3.667688 -1.981502 5.131490 -1.549399 -4.840029 4.025378 -1.254848 6.968394 -1.838500 -0.484800 6.908400 -83.255800 -20.663939 32.492471 27.968957 -38.962915 -9.482441 0.196506 0.411575 -23.231030 -7.125000 0.000000 0.000000 87.381093 -21.091318 -26.833329 -5.285985 9.865317 -0.614729 -0.080595 -0.333078 28.398643 7.125000 0.000000 0.000000 
0.383520 17.645127 -10.107526 9.489375 6.834441 10.555621 -21.817131 1.493118 7.218262 -1.189440 3.432344 7.315277 -3.221471 16.300521 6.492589 1.527300 -7.803100 -22.117500 0.122167 0.364907 -41.037010 -1.624792 -9.191061 24.457375 5.473982 -20.607111 -2.366014 -0.359600 3.852200 -10.661300 -0.545065 -3.879507 -1.996478 5.147269 -1.678845 -4.744528 4.016781 -1.266449 7.151585 -1.841500 -0.480300 6.988500 -82.826102 -21.445343 32.667922 28.874934 -39.788087 -10.032294 0.201346 0.401200 -23.289890 -7.125000 0.000000 0.000000 87.414290 -21.751870 -29.187821 -5.180628 9.637133 -0.595364 -0.090094 -0.326304 29.898907 7.125000 0.000000 0.000000 
0.374827 17.641530 -9.807145 9.265277 7.354393 10.464832 -21.260008 1.339676 8.376672 -1.182837 3.368694 7.112942 -3.034802 16.068140 7.822726 1.719200 -8.254900 -23.491000 -0.004304 0.860174 -40.321484 -1.379316 -8.794739 23.198414 5.544873 -20.735543 -3.364001 -0.428900 4.203100 -11.648900 -0.421593 -4.050424 -2.000970 5.140359 -1.787749 -4.662098 3.974619 -1.290288 7.342650 -1.856400 -0.484700 7.073000 -82.469645 -22.137432 32.765914 29.774710 -40.583433 -10.589643 0.208335 0.388613 -23.253847 -7.125000 0.000000 0.000000 87.472411 -22.400401 -31.313562 -5.100043 9.452647 -0.579920 -0.098602 -0.319834 31.138950 7.125000 0.000000 0.000000 
0.365134 17.637632 -9.501069 8.978158 7.823365 10.303223 -20.645989 1.179050 9.214663 -1.143207 3.550435 7.579119 -2.861587 15.835295 9.032753 1.912000 -8.680400 -24.800500 0.115850 1.129046 -39.645331 -1.219905 -8.557538 22.453877 5.479668 -20.473767 -3.960607 -0.485400 4.467600 -12.396000 -0.289326 -4.173159 -1.988199 5.111965 -1.872181 -4.572414 3.896660 -1.306745 7.481251 -1.882300 -0.492500 7.135400 -82.183885 -22.731461 32.769469 30.683494 -41.363137 -11.163755 0.216280 0.375064 -23.125268 -7.125000 0.000000 0.000000 87.557530 -23.002104 -33.303605 -5.032371 9.291675 -0.566645 -0.106346 -0.313406 32.222123 7.125000 0.000000 0.000000 
0.354541 17.632936 -9.189296 8.640255 8.195608 10.078270 -20.005026 1.062211 9.762530 -1.068888 3.934947 8.601366 -2.689177 15.586620 10.207675 2.101900 -9.075100 -26.030700 0.490988 1.155036 -39.018945 -1.133040 -8.472012 22.186774 5.261839 -19.761085 -4.073706 -0.534800 4.685800 -13.014700 -0.153464 -4.233802 -1.967089 5.066754 -1.923648 -4.487456 3.781476 -1.314001 7.576928 -1.921000 -0.501800 7.175900 -81.963701 -23.197523 32.700355 31.613493 -42.136946 -11.761790 0.223894 0.362159 -22.984812 -7.125000 0.000000 0.000000 87.668362 -23.587090 -34.988048 -4.983697 9.168922 -0.556678 -0.112548 -0.308013 33.010688 7.125000 0.000000 0.000000 
0.342550 17.627740 -8.872327 8.273440 8.463692 9.812582 -19.359222 1.006915 10.098680 -0.961722 4.444568 9.973502 -2.488166 15.282809 11.497468 2.283400 -9.433000 -27.159500 1.037332 1.042409 -38.411346 -1.109828 -8.524716 22.342337 4.934108 -18.724865 -3.767724 -0.582000 4.884800 -13.580200 -0.015518 -4.234543 -1.953298 5.021184 -1.940213 -4.425604 3.621494 -1.300244 7.605966 -1.974000 -0.508500 7.177700 -81.816173 -23.508325 32.587825 32.560527 -42.901072 -12.381979 0.231783 0.350695 -22.938908 -7.125000 0.000000 0.000000 87.803859 -24.186522 -36.232941 -4.960265 9.098016 -0.551001 -0.116713 -0.304189 33.390465 7.125000 0.000000 0.000000 
0.329659 17.622743 -8.551561 7.921623 8.617148 9.526506 -18.786160 0.857213 10.328769 -0.824640 5.029807 11.545023 -2.278010 15.077169 13.014752 2.450600 -9.747500 -28.162800 1.637764 0.893903 -37.805936 -1.142966 -8.691493 22.841898 4.549769 -17.531000 -3.131429 -0.626300 5.064000 -14.091100 0.112995 -4.186385 -1.955764 4.983337 -1.927503 -4.391618 3.457734 -1.282796 7.649664 -2.024100 -0.513800 7.177300 -81.737844 -23.655770 32.428977 33.506883 -43.640508 -13.011943 0.239291 0.340734 -23.045676 -7.125000 0.000000 0.000000 87.956441 -24.782144 -37.168081 -4.949477 9.056639 -0.547692 -0.119447 -0.301643 33.528574 7.125000 0.000000 0.000000 
0.317269 17.619446 -8.228297 7.629540 8.650442 9.222302 -18.329730 0.706686 10.447317 -0.657042 5.659247 13.242069 -2.010589 14.872048 14.886932 2.589100 -9.998200 -28.970900 2.179409 0.793056 -37.187452 -1.227960 -8.945555 23.603220 4.176810 -16.394034 -2.264640 -0.660800 5.198900 -14.476800 0.211259 -4.086997 -1.976491 4.938084 -1.883370 -4.400577 3.312781 -1.277304 7.728843 -2.064800 -0.521600 7.182900 -81.723906 -23.634804 32.251008 34.436668 -44.343763 -13.640448 0.246564 0.332841 -23.341283 -7.125000 0.000000 0.000000 88.144097 -25.358997 -37.912814 -4.943849 9.030471 -0.545776 -0.121070 -0.300355 33.534791 7.125000 0.000000 0.000000 
0.305177 17.620145 -7.904633 7.382777 8.596670 8.905484 -17.962733 0.529033 10.432217 -0.456212 6.327158 15.052493 -1.670503 14.672849 17.162320 2.690100 -10.175700 -29.547600 2.615954 0.826368 -36.543771 -1.357036 -9.257517 24.536472 3.894032 -15.563394 -1.333962 -0.681000 5.276400 -14.698500 0.288660 -3.953284 -2.019804 4.893687 -1.815733 -4.463069 3.156737 -1.269454 7.874389 -2.113300 -0.523600 7.208500 -81.795748 -23.455458 32.029407 35.309696 -44.984079 -14.238956 0.253338 0.326320 -23.806591 -7.125000 0.000000 0.000000 88.352837 -25.904001 -38.409457 -4.943435 9.020696 -0.545555 -0.121169 -0.301121 33.351115 7.125000 0.000000 0.000000 
